<?xml version="1.0" encoding="utf-8" standalone="no"?>
<!DOCTYPE svg PUBLIC "-//W3C//DTD SVG 1.1//EN"
  "http://www.w3.org/Graphics/SVG/1.1/DTD/svg11.dtd">
<svg xmlns:xlink="http://www.w3.org/1999/xlink" width="432pt" height="288pt" viewBox="0 0 432 288" xmlns="http://www.w3.org/2000/svg" version="1.1">
 <metadata>
  <rdf:RDF xmlns:dc="http://purl.org/dc/elements/1.1/" xmlns:cc="http://creativecommons.org/ns#" xmlns:rdf="http://www.w3.org/1999/02/22-rdf-syntax-ns#">
   <cc:Work>
    <dc:type rdf:resource="http://purl.org/dc/dcmitype/StillImage"/>
    <dc:date>2025-03-06T17:54:00.980633</dc:date>
    <dc:format>image/svg+xml</dc:format>
    <dc:creator>
     <cc:Agent>
      <dc:title>Matplotlib v3.9.2, https://matplotlib.org/</dc:title>
     </cc:Agent>
    </dc:creator>
   </cc:Work>
  </rdf:RDF>
 </metadata>
 <defs>
  <style type="text/css">*{stroke-linejoin: round; stroke-linecap: butt}</style>
 </defs>
 <g id="figure_1">
  <g id="patch_1">
   <path d="M 0 288 
L 432 288 
L 432 0 
L 0 0 
z
" style="fill: #ffffff"/>
  </g>
  <g id="axes_1">
   <g id="patch_2">
    <path d="M 56.09 210.172201 
L 421.2 210.172201 
L 421.2 10.8 
L 56.09 10.8 
z
" style="fill: #ffffff"/>
   </g>
   <g id="patch_3">
    <path d="M 72.685909 122.848686 
L 81.088901 122.848686 
L 81.088901 33.753044 
L 72.685909 33.753044 
z
" clip-path="url(#p04adede544)" style="fill: #009900"/>
   </g>
   <g id="patch_4">
    <path d="M 93.693389 122.848686 
L 102.096381 122.848686 
L 102.096381 112.778906 
L 93.693389 112.778906 
z
" clip-path="url(#p04adede544)" style="fill: #009900"/>
   </g>
   <g id="patch_5">
    <path d="M 114.700869 122.848686 
L 123.103861 122.848686 
L 123.103861 114.782528 
L 114.700869 114.782528 
z
" clip-path="url(#p04adede544)" style="fill: #009900"/>
   </g>
   <g id="patch_6">
    <path d="M 135.708349 122.848686 
L 144.111341 122.848686 
L 144.111341 70.443003 
L 135.708349 70.443003 
z
" clip-path="url(#p04adede544)" style="fill: #009900"/>
   </g>
   <g id="patch_7">
    <path d="M 156.715829 122.848686 
L 165.11882 122.848686 
L 165.11882 19.862373 
L 156.715829 19.862373 
z
" clip-path="url(#p04adede544)" style="fill: #009900"/>
   </g>
   <g id="patch_8">
    <path d="M 177.723308 122.848686 
L 186.1263 122.848686 
L 186.1263 27.714949 
L 177.723308 27.714949 
z
" clip-path="url(#p04adede544)" style="fill: #009900"/>
   </g>
   <g id="patch_9">
    <path d="M 198.730788 122.848686 
L 207.13378 122.848686 
L 207.13378 76.177424 
L 198.730788 76.177424 
z
" clip-path="url(#p04adede544)" style="fill: #009900"/>
   </g>
   <g id="patch_10">
    <path d="M 219.738268 122.848686 
L 228.14126 122.848686 
L 228.14126 144.906424 
L 219.738268 144.906424 
z
" clip-path="url(#p04adede544)" style="fill: #009900"/>
   </g>
   <g id="patch_11">
    <path d="M 240.745748 122.848686 
L 249.14874 122.848686 
L 249.14874 201.109829 
L 240.745748 201.109829 
z
" clip-path="url(#p04adede544)" style="fill: #009900"/>
   </g>
   <g id="patch_12">
    <path d="M 261.753228 122.848686 
L 270.15622 122.848686 
L 270.15622 188.078748 
L 261.753228 188.078748 
z
" clip-path="url(#p04adede544)" style="fill: #009900"/>
   </g>
   <g id="patch_13">
    <path d="M 282.760708 122.848686 
L 291.1637 122.848686 
L 291.1637 113.012332 
L 282.760708 113.012332 
z
" clip-path="url(#p04adede544)" style="fill: #009900"/>
   </g>
   <g id="patch_14">
    <path d="M 303.768188 122.848686 
L 312.17118 122.848686 
L 312.17118 173.598463 
L 303.768188 173.598463 
z
" clip-path="url(#p04adede544)" style="fill: #009900"/>
   </g>
   <g id="patch_15">
    <path d="M 324.775667 122.848686 
L 333.178659 122.848686 
L 333.178659 125.914911 
L 324.775667 125.914911 
z
" clip-path="url(#p04adede544)" style="fill: #009900"/>
   </g>
   <g id="patch_16">
    <path d="M 345.783147 122.848686 
L 354.186139 122.848686 
L 354.186139 185.665944 
L 345.783147 185.665944 
z
" clip-path="url(#p04adede544)" style="fill: #009900"/>
   </g>
   <g id="patch_17">
    <path d="M 81.088901 122.848686 
L 89.491893 122.848686 
L 89.491893 69.25196 
L 81.088901 69.25196 
z
" clip-path="url(#p04adede544)" style="fill: #990000"/>
   </g>
   <g id="patch_18">
    <path d="M 102.096381 122.848686 
L 110.499373 122.848686 
L 110.499373 108.347766 
L 102.096381 108.347766 
z
" clip-path="url(#p04adede544)" style="fill: #990000"/>
   </g>
   <g id="patch_19">
    <path d="M 123.103861 122.848686 
L 131.506853 122.848686 
L 131.506853 101.399252 
L 123.103861 101.399252 
z
" clip-path="url(#p04adede544)" style="fill: #990000"/>
   </g>
   <g id="patch_20">
    <path d="M 144.111341 122.848686 
L 152.514333 122.848686 
L 152.514333 69.785097 
L 144.111341 69.785097 
z
" clip-path="url(#p04adede544)" style="fill: #990000"/>
   </g>
   <g id="patch_21">
    <path d="M 165.11882 122.848686 
L 173.521812 122.848686 
L 173.521812 33.307919 
L 165.11882 33.307919 
z
" clip-path="url(#p04adede544)" style="fill: #990000"/>
   </g>
   <g id="patch_22">
    <path d="M 186.1263 122.848686 
L 194.529292 122.848686 
L 194.529292 117.39821 
L 186.1263 117.39821 
z
" clip-path="url(#p04adede544)" style="fill: #990000"/>
   </g>
   <g id="patch_23">
    <path d="M 207.13378 122.848686 
L 215.536772 122.848686 
L 215.536772 92.423095 
L 207.13378 92.423095 
z
" clip-path="url(#p04adede544)" style="fill: #990000"/>
   </g>
   <g id="patch_24">
    <path d="M 228.14126 122.848686 
L 236.544252 122.848686 
L 236.544252 158.069069 
L 228.14126 158.069069 
z
" clip-path="url(#p04adede544)" style="fill: #990000"/>
   </g>
   <g id="patch_25">
    <path d="M 249.14874 122.848686 
L 257.551732 122.848686 
L 257.551732 153.626958 
L 249.14874 153.626958 
z
" clip-path="url(#p04adede544)" style="fill: #990000"/>
   </g>
   <g id="patch_26">
    <path d="M 270.15622 122.848686 
L 278.559212 122.848686 
L 278.559212 149.110681 
L 270.15622 149.110681 
z
" clip-path="url(#p04adede544)" style="fill: #990000"/>
   </g>
   <g id="patch_27">
    <path d="M 291.1637 122.848686 
L 299.566692 122.848686 
L 299.566692 187.82552 
L 291.1637 187.82552 
z
" clip-path="url(#p04adede544)" style="fill: #990000"/>
   </g>
   <g id="patch_28">
    <path d="M 312.17118 122.848686 
L 320.574171 122.848686 
L 320.574171 188.667862 
L 312.17118 188.667862 
z
" clip-path="url(#p04adede544)" style="fill: #990000"/>
   </g>
   <g id="patch_29">
    <path d="M 333.178659 122.848686 
L 341.581651 122.848686 
L 341.581651 103.151981 
L 333.178659 103.151981 
z
" clip-path="url(#p04adede544)" style="fill: #990000"/>
   </g>
   <g id="patch_30">
    <path d="M 354.186139 122.848686 
L 362.589131 122.848686 
L 362.589131 179.659366 
L 354.186139 179.659366 
z
" clip-path="url(#p04adede544)" style="fill: #990000"/>
   </g>
   <g id="patch_31">
    <path d="M 366.790627 122.848686 
L 375.193619 122.848686 
L 375.193619 71.06557 
L 366.790627 71.06557 
z
" clip-path="url(#p04adede544)" style="fill: #009900; opacity: 0.5"/>
   </g>
   <g id="patch_32">
    <path d="M 375.193619 122.848686 
L 383.596611 122.848686 
L 383.596611 86.88316 
L 375.193619 86.88316 
z
" clip-path="url(#p04adede544)" style="fill: #990000; opacity: 0.5"/>
   </g>
   <g id="patch_33">
    <path d="M 387.798107 122.848686 
L 396.201099 122.848686 
L 396.201099 169.879053 
L 387.798107 169.879053 
z
" clip-path="url(#p04adede544)" style="fill: #009900; opacity: 0.5"/>
   </g>
   <g id="patch_34">
    <path d="M 396.201099 122.848686 
L 404.604091 122.848686 
L 404.604091 169.493243 
L 396.201099 169.493243 
z
" clip-path="url(#p04adede544)" style="fill: #990000; opacity: 0.5"/>
   </g>
   <g id="matplotlib.axis_1">
    <g id="xtick_1">
     <g id="line2d_1">
      <defs>
       <path id="m8314c55387" d="M 0 0 
L 0 3.5 
" style="stroke: #000000; stroke-width: 0.8"/>
      </defs>
      <g>
       <use xlink:href="#m8314c55387" x="81.088901" y="210.172201" style="stroke: #000000; stroke-width: 0.8"/>
      </g>
     </g>
     <g id="text_1">
      <!--  happy -->
      <g transform="translate(55.393304 246.770144) rotate(-45) scale(0.1 -0.1)">
       <defs>
        <path id="DejaVuSans-20" transform="scale(0.015625)"/>
        <path id="DejaVuSans-68" d="M 3513 2113 
L 3513 0 
L 2938 0 
L 2938 2094 
Q 2938 2591 2744 2837 
Q 2550 3084 2163 3084 
Q 1697 3084 1428 2787 
Q 1159 2491 1159 1978 
L 1159 0 
L 581 0 
L 581 4863 
L 1159 4863 
L 1159 2956 
Q 1366 3272 1645 3428 
Q 1925 3584 2291 3584 
Q 2894 3584 3203 3211 
Q 3513 2838 3513 2113 
z
" transform="scale(0.015625)"/>
        <path id="DejaVuSans-61" d="M 2194 1759 
Q 1497 1759 1228 1600 
Q 959 1441 959 1056 
Q 959 750 1161 570 
Q 1363 391 1709 391 
Q 2188 391 2477 730 
Q 2766 1069 2766 1631 
L 2766 1759 
L 2194 1759 
z
M 3341 1997 
L 3341 0 
L 2766 0 
L 2766 531 
Q 2569 213 2275 61 
Q 1981 -91 1556 -91 
Q 1019 -91 701 211 
Q 384 513 384 1019 
Q 384 1609 779 1909 
Q 1175 2209 1959 2209 
L 2766 2209 
L 2766 2266 
Q 2766 2663 2505 2880 
Q 2244 3097 1772 3097 
Q 1472 3097 1187 3025 
Q 903 2953 641 2809 
L 641 3341 
Q 956 3463 1253 3523 
Q 1550 3584 1831 3584 
Q 2591 3584 2966 3190 
Q 3341 2797 3341 1997 
z
" transform="scale(0.015625)"/>
        <path id="DejaVuSans-70" d="M 1159 525 
L 1159 -1331 
L 581 -1331 
L 581 3500 
L 1159 3500 
L 1159 2969 
Q 1341 3281 1617 3432 
Q 1894 3584 2278 3584 
Q 2916 3584 3314 3078 
Q 3713 2572 3713 1747 
Q 3713 922 3314 415 
Q 2916 -91 2278 -91 
Q 1894 -91 1617 61 
Q 1341 213 1159 525 
z
M 3116 1747 
Q 3116 2381 2855 2742 
Q 2594 3103 2138 3103 
Q 1681 3103 1420 2742 
Q 1159 2381 1159 1747 
Q 1159 1113 1420 752 
Q 1681 391 2138 391 
Q 2594 391 2855 752 
Q 3116 1113 3116 1747 
z
" transform="scale(0.015625)"/>
        <path id="DejaVuSans-79" d="M 2059 -325 
Q 1816 -950 1584 -1140 
Q 1353 -1331 966 -1331 
L 506 -1331 
L 506 -850 
L 844 -850 
Q 1081 -850 1212 -737 
Q 1344 -625 1503 -206 
L 1606 56 
L 191 3500 
L 800 3500 
L 1894 763 
L 2988 3500 
L 3597 3500 
L 2059 -325 
z
" transform="scale(0.015625)"/>
       </defs>
       <use xlink:href="#DejaVuSans-20"/>
       <use xlink:href="#DejaVuSans-68" x="31.787109"/>
       <use xlink:href="#DejaVuSans-61" x="95.166016"/>
       <use xlink:href="#DejaVuSans-70" x="156.445312"/>
       <use xlink:href="#DejaVuSans-70" x="219.921875"/>
       <use xlink:href="#DejaVuSans-79" x="283.398438"/>
      </g>
     </g>
    </g>
    <g id="xtick_2">
     <g id="line2d_2">
      <g>
       <use xlink:href="#m8314c55387" x="102.096381" y="210.172201" style="stroke: #000000; stroke-width: 0.8"/>
      </g>
     </g>
     <g id="text_2">
      <!--  good -->
      <g transform="translate(80.74728 242.423647) rotate(-45) scale(0.1 -0.1)">
       <defs>
        <path id="DejaVuSans-67" d="M 2906 1791 
Q 2906 2416 2648 2759 
Q 2391 3103 1925 3103 
Q 1463 3103 1205 2759 
Q 947 2416 947 1791 
Q 947 1169 1205 825 
Q 1463 481 1925 481 
Q 2391 481 2648 825 
Q 2906 1169 2906 1791 
z
M 3481 434 
Q 3481 -459 3084 -895 
Q 2688 -1331 1869 -1331 
Q 1566 -1331 1297 -1286 
Q 1028 -1241 775 -1147 
L 775 -588 
Q 1028 -725 1275 -790 
Q 1522 -856 1778 -856 
Q 2344 -856 2625 -561 
Q 2906 -266 2906 331 
L 2906 616 
Q 2728 306 2450 153 
Q 2172 0 1784 0 
Q 1141 0 747 490 
Q 353 981 353 1791 
Q 353 2603 747 3093 
Q 1141 3584 1784 3584 
Q 2172 3584 2450 3431 
Q 2728 3278 2906 2969 
L 2906 3500 
L 3481 3500 
L 3481 434 
z
" transform="scale(0.015625)"/>
        <path id="DejaVuSans-6f" d="M 1959 3097 
Q 1497 3097 1228 2736 
Q 959 2375 959 1747 
Q 959 1119 1226 758 
Q 1494 397 1959 397 
Q 2419 397 2687 759 
Q 2956 1122 2956 1747 
Q 2956 2369 2687 2733 
Q 2419 3097 1959 3097 
z
M 1959 3584 
Q 2709 3584 3137 3096 
Q 3566 2609 3566 1747 
Q 3566 888 3137 398 
Q 2709 -91 1959 -91 
Q 1206 -91 779 398 
Q 353 888 353 1747 
Q 353 2609 779 3096 
Q 1206 3584 1959 3584 
z
" transform="scale(0.015625)"/>
        <path id="DejaVuSans-64" d="M 2906 2969 
L 2906 4863 
L 3481 4863 
L 3481 0 
L 2906 0 
L 2906 525 
Q 2725 213 2448 61 
Q 2172 -91 1784 -91 
Q 1150 -91 751 415 
Q 353 922 353 1747 
Q 353 2572 751 3078 
Q 1150 3584 1784 3584 
Q 2172 3584 2448 3432 
Q 2725 3281 2906 2969 
z
M 947 1747 
Q 947 1113 1208 752 
Q 1469 391 1925 391 
Q 2381 391 2643 752 
Q 2906 1113 2906 1747 
Q 2906 2381 2643 2742 
Q 2381 3103 1925 3103 
Q 1469 3103 1208 2742 
Q 947 2381 947 1747 
z
" transform="scale(0.015625)"/>
       </defs>
       <use xlink:href="#DejaVuSans-20"/>
       <use xlink:href="#DejaVuSans-67" x="31.787109"/>
       <use xlink:href="#DejaVuSans-6f" x="95.263672"/>
       <use xlink:href="#DejaVuSans-6f" x="156.445312"/>
       <use xlink:href="#DejaVuSans-64" x="217.626953"/>
      </g>
     </g>
    </g>
    <g id="xtick_3">
     <g id="line2d_3">
      <g>
       <use xlink:href="#m8314c55387" x="123.103861" y="210.172201" style="stroke: #000000; stroke-width: 0.8"/>
      </g>
     </g>
     <g id="text_3">
      <!--  great -->
      <g transform="translate(100.692995 243.485412) rotate(-45) scale(0.1 -0.1)">
       <defs>
        <path id="DejaVuSans-72" d="M 2631 2963 
Q 2534 3019 2420 3045 
Q 2306 3072 2169 3072 
Q 1681 3072 1420 2755 
Q 1159 2438 1159 1844 
L 1159 0 
L 581 0 
L 581 3500 
L 1159 3500 
L 1159 2956 
Q 1341 3275 1631 3429 
Q 1922 3584 2338 3584 
Q 2397 3584 2469 3576 
Q 2541 3569 2628 3553 
L 2631 2963 
z
" transform="scale(0.015625)"/>
        <path id="DejaVuSans-65" d="M 3597 1894 
L 3597 1613 
L 953 1613 
Q 991 1019 1311 708 
Q 1631 397 2203 397 
Q 2534 397 2845 478 
Q 3156 559 3463 722 
L 3463 178 
Q 3153 47 2828 -22 
Q 2503 -91 2169 -91 
Q 1331 -91 842 396 
Q 353 884 353 1716 
Q 353 2575 817 3079 
Q 1281 3584 2069 3584 
Q 2775 3584 3186 3129 
Q 3597 2675 3597 1894 
z
M 3022 2063 
Q 3016 2534 2758 2815 
Q 2500 3097 2075 3097 
Q 1594 3097 1305 2825 
Q 1016 2553 972 2059 
L 3022 2063 
z
" transform="scale(0.015625)"/>
        <path id="DejaVuSans-74" d="M 1172 4494 
L 1172 3500 
L 2356 3500 
L 2356 3053 
L 1172 3053 
L 1172 1153 
Q 1172 725 1289 603 
Q 1406 481 1766 481 
L 2356 481 
L 2356 0 
L 1766 0 
Q 1100 0 847 248 
Q 594 497 594 1153 
L 594 3053 
L 172 3053 
L 172 3500 
L 594 3500 
L 594 4494 
L 1172 4494 
z
" transform="scale(0.015625)"/>
       </defs>
       <use xlink:href="#DejaVuSans-20"/>
       <use xlink:href="#DejaVuSans-67" x="31.787109"/>
       <use xlink:href="#DejaVuSans-72" x="95.263672"/>
       <use xlink:href="#DejaVuSans-65" x="134.126953"/>
       <use xlink:href="#DejaVuSans-61" x="195.650391"/>
       <use xlink:href="#DejaVuSans-74" x="256.929688"/>
      </g>
     </g>
    </g>
    <g id="xtick_4">
     <g id="line2d_4">
      <g>
       <use xlink:href="#m8314c55387" x="144.111341" y="210.172201" style="stroke: #000000; stroke-width: 0.8"/>
      </g>
     </g>
     <g id="text_4">
      <!--  joyful -->
      <g transform="translate(120.98232 244.203568) rotate(-45) scale(0.1 -0.1)">
       <defs>
        <path id="DejaVuSans-6a" d="M 603 3500 
L 1178 3500 
L 1178 -63 
Q 1178 -731 923 -1031 
Q 669 -1331 103 -1331 
L -116 -1331 
L -116 -844 
L 38 -844 
Q 366 -844 484 -692 
Q 603 -541 603 -63 
L 603 3500 
z
M 603 4863 
L 1178 4863 
L 1178 4134 
L 603 4134 
L 603 4863 
z
" transform="scale(0.015625)"/>
        <path id="DejaVuSans-66" d="M 2375 4863 
L 2375 4384 
L 1825 4384 
Q 1516 4384 1395 4259 
Q 1275 4134 1275 3809 
L 1275 3500 
L 2222 3500 
L 2222 3053 
L 1275 3053 
L 1275 0 
L 697 0 
L 697 3053 
L 147 3053 
L 147 3500 
L 697 3500 
L 697 3744 
Q 697 4328 969 4595 
Q 1241 4863 1831 4863 
L 2375 4863 
z
" transform="scale(0.015625)"/>
        <path id="DejaVuSans-75" d="M 544 1381 
L 544 3500 
L 1119 3500 
L 1119 1403 
Q 1119 906 1312 657 
Q 1506 409 1894 409 
Q 2359 409 2629 706 
Q 2900 1003 2900 1516 
L 2900 3500 
L 3475 3500 
L 3475 0 
L 2900 0 
L 2900 538 
Q 2691 219 2414 64 
Q 2138 -91 1772 -91 
Q 1169 -91 856 284 
Q 544 659 544 1381 
z
M 1991 3584 
L 1991 3584 
z
" transform="scale(0.015625)"/>
        <path id="DejaVuSans-6c" d="M 603 4863 
L 1178 4863 
L 1178 0 
L 603 0 
L 603 4863 
z
" transform="scale(0.015625)"/>
       </defs>
       <use xlink:href="#DejaVuSans-20"/>
       <use xlink:href="#DejaVuSans-6a" x="31.787109"/>
       <use xlink:href="#DejaVuSans-6f" x="59.570312"/>
       <use xlink:href="#DejaVuSans-79" x="120.751953"/>
       <use xlink:href="#DejaVuSans-66" x="179.931641"/>
       <use xlink:href="#DejaVuSans-75" x="215.136719"/>
       <use xlink:href="#DejaVuSans-6c" x="278.515625"/>
      </g>
     </g>
    </g>
    <g id="xtick_5">
     <g id="line2d_5">
      <g>
       <use xlink:href="#m8314c55387" x="165.11882" y="210.172201" style="stroke: #000000; stroke-width: 0.8"/>
      </g>
     </g>
     <g id="text_5">
      <!--  excited -->
      <g transform="translate(135.647936 250.545432) rotate(-45) scale(0.1 -0.1)">
       <defs>
        <path id="DejaVuSans-78" d="M 3513 3500 
L 2247 1797 
L 3578 0 
L 2900 0 
L 1881 1375 
L 863 0 
L 184 0 
L 1544 1831 
L 300 3500 
L 978 3500 
L 1906 2253 
L 2834 3500 
L 3513 3500 
z
" transform="scale(0.015625)"/>
        <path id="DejaVuSans-63" d="M 3122 3366 
L 3122 2828 
Q 2878 2963 2633 3030 
Q 2388 3097 2138 3097 
Q 1578 3097 1268 2742 
Q 959 2388 959 1747 
Q 959 1106 1268 751 
Q 1578 397 2138 397 
Q 2388 397 2633 464 
Q 2878 531 3122 666 
L 3122 134 
Q 2881 22 2623 -34 
Q 2366 -91 2075 -91 
Q 1284 -91 818 406 
Q 353 903 353 1747 
Q 353 2603 823 3093 
Q 1294 3584 2113 3584 
Q 2378 3584 2631 3529 
Q 2884 3475 3122 3366 
z
" transform="scale(0.015625)"/>
        <path id="DejaVuSans-69" d="M 603 3500 
L 1178 3500 
L 1178 0 
L 603 0 
L 603 3500 
z
M 603 4863 
L 1178 4863 
L 1178 4134 
L 603 4134 
L 603 4863 
z
" transform="scale(0.015625)"/>
       </defs>
       <use xlink:href="#DejaVuSans-20"/>
       <use xlink:href="#DejaVuSans-65" x="31.787109"/>
       <use xlink:href="#DejaVuSans-78" x="91.560547"/>
       <use xlink:href="#DejaVuSans-63" x="148.990234"/>
       <use xlink:href="#DejaVuSans-69" x="203.970703"/>
       <use xlink:href="#DejaVuSans-74" x="231.753906"/>
       <use xlink:href="#DejaVuSans-65" x="270.962891"/>
       <use xlink:href="#DejaVuSans-64" x="332.486328"/>
      </g>
     </g>
    </g>
    <g id="xtick_6">
     <g id="line2d_6">
      <g>
       <use xlink:href="#m8314c55387" x="186.1263" y="210.172201" style="stroke: #000000; stroke-width: 0.8"/>
      </g>
     </g>
     <g id="text_6">
      <!--  pleased -->
      <g transform="translate(154.747332 252.453515) rotate(-45) scale(0.1 -0.1)">
       <defs>
        <path id="DejaVuSans-73" d="M 2834 3397 
L 2834 2853 
Q 2591 2978 2328 3040 
Q 2066 3103 1784 3103 
Q 1356 3103 1142 2972 
Q 928 2841 928 2578 
Q 928 2378 1081 2264 
Q 1234 2150 1697 2047 
L 1894 2003 
Q 2506 1872 2764 1633 
Q 3022 1394 3022 966 
Q 3022 478 2636 193 
Q 2250 -91 1575 -91 
Q 1294 -91 989 -36 
Q 684 19 347 128 
L 347 722 
Q 666 556 975 473 
Q 1284 391 1588 391 
Q 1994 391 2212 530 
Q 2431 669 2431 922 
Q 2431 1156 2273 1281 
Q 2116 1406 1581 1522 
L 1381 1569 
Q 847 1681 609 1914 
Q 372 2147 372 2553 
Q 372 3047 722 3315 
Q 1072 3584 1716 3584 
Q 2034 3584 2315 3537 
Q 2597 3491 2834 3397 
z
" transform="scale(0.015625)"/>
       </defs>
       <use xlink:href="#DejaVuSans-20"/>
       <use xlink:href="#DejaVuSans-70" x="31.787109"/>
       <use xlink:href="#DejaVuSans-6c" x="95.263672"/>
       <use xlink:href="#DejaVuSans-65" x="123.046875"/>
       <use xlink:href="#DejaVuSans-61" x="184.570312"/>
       <use xlink:href="#DejaVuSans-73" x="245.849609"/>
       <use xlink:href="#DejaVuSans-65" x="297.949219"/>
       <use xlink:href="#DejaVuSans-64" x="359.472656"/>
      </g>
     </g>
    </g>
    <g id="xtick_7">
     <g id="line2d_7">
      <g>
       <use xlink:href="#m8314c55387" x="207.13378" y="210.172201" style="stroke: #000000; stroke-width: 0.8"/>
      </g>
     </g>
     <g id="text_7">
      <!--  wonderful -->
      <g transform="translate(168.14347 260.064857) rotate(-45) scale(0.1 -0.1)">
       <defs>
        <path id="DejaVuSans-77" d="M 269 3500 
L 844 3500 
L 1563 769 
L 2278 3500 
L 2956 3500 
L 3675 769 
L 4391 3500 
L 4966 3500 
L 4050 0 
L 3372 0 
L 2619 2869 
L 1863 0 
L 1184 0 
L 269 3500 
z
" transform="scale(0.015625)"/>
        <path id="DejaVuSans-6e" d="M 3513 2113 
L 3513 0 
L 2938 0 
L 2938 2094 
Q 2938 2591 2744 2837 
Q 2550 3084 2163 3084 
Q 1697 3084 1428 2787 
Q 1159 2491 1159 1978 
L 1159 0 
L 581 0 
L 581 3500 
L 1159 3500 
L 1159 2956 
Q 1366 3272 1645 3428 
Q 1925 3584 2291 3584 
Q 2894 3584 3203 3211 
Q 3513 2838 3513 2113 
z
" transform="scale(0.015625)"/>
       </defs>
       <use xlink:href="#DejaVuSans-20"/>
       <use xlink:href="#DejaVuSans-77" x="31.787109"/>
       <use xlink:href="#DejaVuSans-6f" x="113.574219"/>
       <use xlink:href="#DejaVuSans-6e" x="174.755859"/>
       <use xlink:href="#DejaVuSans-64" x="238.134766"/>
       <use xlink:href="#DejaVuSans-65" x="301.611328"/>
       <use xlink:href="#DejaVuSans-72" x="363.134766"/>
       <use xlink:href="#DejaVuSans-66" x="404.248047"/>
       <use xlink:href="#DejaVuSans-75" x="439.453125"/>
       <use xlink:href="#DejaVuSans-6c" x="502.832031"/>
      </g>
     </g>
    </g>
    <g id="xtick_8">
     <g id="line2d_8">
      <g>
       <use xlink:href="#m8314c55387" x="228.14126" y="210.172201" style="stroke: #000000; stroke-width: 0.8"/>
      </g>
     </g>
     <g id="text_8">
      <!--  sad -->
      <g transform="translate(211.917579 237.298228) rotate(-45) scale(0.1 -0.1)">
       <use xlink:href="#DejaVuSans-20"/>
       <use xlink:href="#DejaVuSans-73" x="31.787109"/>
       <use xlink:href="#DejaVuSans-61" x="83.886719"/>
       <use xlink:href="#DejaVuSans-64" x="145.166016"/>
      </g>
     </g>
    </g>
    <g id="xtick_9">
     <g id="line2d_9">
      <g>
       <use xlink:href="#m8314c55387" x="249.14874" y="210.172201" style="stroke: #000000; stroke-width: 0.8"/>
      </g>
     </g>
     <g id="text_9">
      <!--  bad -->
      <g transform="translate(232.11962 238.103667) rotate(-45) scale(0.1 -0.1)">
       <defs>
        <path id="DejaVuSans-62" d="M 3116 1747 
Q 3116 2381 2855 2742 
Q 2594 3103 2138 3103 
Q 1681 3103 1420 2742 
Q 1159 2381 1159 1747 
Q 1159 1113 1420 752 
Q 1681 391 2138 391 
Q 2594 391 2855 752 
Q 3116 1113 3116 1747 
z
M 1159 2969 
Q 1341 3281 1617 3432 
Q 1894 3584 2278 3584 
Q 2916 3584 3314 3078 
Q 3713 2572 3713 1747 
Q 3713 922 3314 415 
Q 2916 -91 2278 -91 
Q 1894 -91 1617 61 
Q 1341 213 1159 525 
L 1159 0 
L 581 0 
L 581 4863 
L 1159 4863 
L 1159 2969 
z
" transform="scale(0.015625)"/>
       </defs>
       <use xlink:href="#DejaVuSans-20"/>
       <use xlink:href="#DejaVuSans-62" x="31.787109"/>
       <use xlink:href="#DejaVuSans-61" x="95.263672"/>
       <use xlink:href="#DejaVuSans-64" x="156.542969"/>
      </g>
     </g>
    </g>
    <g id="xtick_10">
     <g id="line2d_10">
      <g>
       <use xlink:href="#m8314c55387" x="270.15622" y="210.172201" style="stroke: #000000; stroke-width: 0.8"/>
      </g>
     </g>
     <g id="text_10">
      <!--  terrible -->
      <g transform="translate(240.856587 250.374179) rotate(-45) scale(0.1 -0.1)">
       <use xlink:href="#DejaVuSans-20"/>
       <use xlink:href="#DejaVuSans-74" x="31.787109"/>
       <use xlink:href="#DejaVuSans-65" x="70.996094"/>
       <use xlink:href="#DejaVuSans-72" x="132.519531"/>
       <use xlink:href="#DejaVuSans-72" x="171.882812"/>
       <use xlink:href="#DejaVuSans-69" x="212.996094"/>
       <use xlink:href="#DejaVuSans-62" x="240.779297"/>
       <use xlink:href="#DejaVuSans-6c" x="304.255859"/>
       <use xlink:href="#DejaVuSans-65" x="332.039062"/>
      </g>
     </g>
    </g>
    <g id="xtick_11">
     <g id="line2d_11">
      <g>
       <use xlink:href="#m8314c55387" x="291.1637" y="210.172201" style="stroke: #000000; stroke-width: 0.8"/>
      </g>
     </g>
     <g id="text_11">
      <!--  unhappy -->
      <g transform="translate(256.505524 255.732723) rotate(-45) scale(0.1 -0.1)">
       <use xlink:href="#DejaVuSans-20"/>
       <use xlink:href="#DejaVuSans-75" x="31.787109"/>
       <use xlink:href="#DejaVuSans-6e" x="95.166016"/>
       <use xlink:href="#DejaVuSans-68" x="158.544922"/>
       <use xlink:href="#DejaVuSans-61" x="221.923828"/>
       <use xlink:href="#DejaVuSans-70" x="283.203125"/>
       <use xlink:href="#DejaVuSans-70" x="346.679688"/>
       <use xlink:href="#DejaVuSans-79" x="410.15625"/>
      </g>
     </g>
    </g>
    <g id="xtick_12">
     <g id="line2d_12">
      <g>
       <use xlink:href="#m8314c55387" x="312.17118" y="210.172201" style="stroke: #000000; stroke-width: 0.8"/>
      </g>
     </g>
     <g id="text_12">
      <!--  depressed -->
      <g transform="translate(271.818584 261.427142) rotate(-45) scale(0.1 -0.1)">
       <use xlink:href="#DejaVuSans-20"/>
       <use xlink:href="#DejaVuSans-64" x="31.787109"/>
       <use xlink:href="#DejaVuSans-65" x="95.263672"/>
       <use xlink:href="#DejaVuSans-70" x="156.787109"/>
       <use xlink:href="#DejaVuSans-72" x="220.263672"/>
       <use xlink:href="#DejaVuSans-65" x="259.126953"/>
       <use xlink:href="#DejaVuSans-73" x="320.650391"/>
       <use xlink:href="#DejaVuSans-73" x="372.75"/>
       <use xlink:href="#DejaVuSans-65" x="424.849609"/>
       <use xlink:href="#DejaVuSans-64" x="486.373047"/>
      </g>
     </g>
    </g>
    <g id="xtick_13">
     <g id="line2d_13">
      <g>
       <use xlink:href="#m8314c55387" x="333.178659" y="210.172201" style="stroke: #000000; stroke-width: 0.8"/>
      </g>
     </g>
     <g id="text_13">
      <!--  miserable -->
      <g transform="translate(294.52975 259.723457) rotate(-45) scale(0.1 -0.1)">
       <defs>
        <path id="DejaVuSans-6d" d="M 3328 2828 
Q 3544 3216 3844 3400 
Q 4144 3584 4550 3584 
Q 5097 3584 5394 3201 
Q 5691 2819 5691 2113 
L 5691 0 
L 5113 0 
L 5113 2094 
Q 5113 2597 4934 2840 
Q 4756 3084 4391 3084 
Q 3944 3084 3684 2787 
Q 3425 2491 3425 1978 
L 3425 0 
L 2847 0 
L 2847 2094 
Q 2847 2600 2669 2842 
Q 2491 3084 2119 3084 
Q 1678 3084 1418 2786 
Q 1159 2488 1159 1978 
L 1159 0 
L 581 0 
L 581 3500 
L 1159 3500 
L 1159 2956 
Q 1356 3278 1631 3431 
Q 1906 3584 2284 3584 
Q 2666 3584 2933 3390 
Q 3200 3197 3328 2828 
z
" transform="scale(0.015625)"/>
       </defs>
       <use xlink:href="#DejaVuSans-20"/>
       <use xlink:href="#DejaVuSans-6d" x="31.787109"/>
       <use xlink:href="#DejaVuSans-69" x="129.199219"/>
       <use xlink:href="#DejaVuSans-73" x="156.982422"/>
       <use xlink:href="#DejaVuSans-65" x="209.082031"/>
       <use xlink:href="#DejaVuSans-72" x="270.605469"/>
       <use xlink:href="#DejaVuSans-61" x="311.71875"/>
       <use xlink:href="#DejaVuSans-62" x="372.998047"/>
       <use xlink:href="#DejaVuSans-6c" x="436.474609"/>
       <use xlink:href="#DejaVuSans-65" x="464.257812"/>
      </g>
     </g>
    </g>
    <g id="xtick_14">
     <g id="line2d_14">
      <g>
       <use xlink:href="#m8314c55387" x="354.186139" y="210.172201" style="stroke: #000000; stroke-width: 0.8"/>
      </g>
     </g>
     <g id="text_14">
      <!--  awful -->
      <g transform="translate(331.417301 243.843385) rotate(-45) scale(0.1 -0.1)">
       <use xlink:href="#DejaVuSans-20"/>
       <use xlink:href="#DejaVuSans-61" x="31.787109"/>
       <use xlink:href="#DejaVuSans-77" x="93.066406"/>
       <use xlink:href="#DejaVuSans-66" x="174.853516"/>
       <use xlink:href="#DejaVuSans-75" x="210.058594"/>
       <use xlink:href="#DejaVuSans-6c" x="273.4375"/>
      </g>
     </g>
    </g>
    <g id="xtick_15">
     <g id="line2d_15">
      <g>
       <use xlink:href="#m8314c55387" x="375.193619" y="210.172201" style="stroke: #000000; stroke-width: 0.8"/>
      </g>
     </g>
     <g id="text_15">
      <!-- Avg Pos$\Delta$ -->
      <g transform="translate(340.82823 255.41121) rotate(-45) scale(0.1 -0.1)">
       <defs>
        <path id="DejaVuSans-41" d="M 2188 4044 
L 1331 1722 
L 3047 1722 
L 2188 4044 
z
M 1831 4666 
L 2547 4666 
L 4325 0 
L 3669 0 
L 3244 1197 
L 1141 1197 
L 716 0 
L 50 0 
L 1831 4666 
z
" transform="scale(0.015625)"/>
        <path id="DejaVuSans-76" d="M 191 3500 
L 800 3500 
L 1894 563 
L 2988 3500 
L 3597 3500 
L 2284 0 
L 1503 0 
L 191 3500 
z
" transform="scale(0.015625)"/>
        <path id="DejaVuSans-50" d="M 1259 4147 
L 1259 2394 
L 2053 2394 
Q 2494 2394 2734 2622 
Q 2975 2850 2975 3272 
Q 2975 3691 2734 3919 
Q 2494 4147 2053 4147 
L 1259 4147 
z
M 628 4666 
L 2053 4666 
Q 2838 4666 3239 4311 
Q 3641 3956 3641 3272 
Q 3641 2581 3239 2228 
Q 2838 1875 2053 1875 
L 1259 1875 
L 1259 0 
L 628 0 
L 628 4666 
z
" transform="scale(0.015625)"/>
        <path id="DejaVuSans-394" d="M 2188 4044 
L 906 525 
L 3472 525 
L 2188 4044 
z
M 50 0 
L 1831 4666 
L 2547 4666 
L 4325 0 
L 50 0 
z
" transform="scale(0.015625)"/>
       </defs>
       <use xlink:href="#DejaVuSans-41" transform="translate(0 0.09375)"/>
       <use xlink:href="#DejaVuSans-76" transform="translate(68.408203 0.09375)"/>
       <use xlink:href="#DejaVuSans-67" transform="translate(127.587891 0.09375)"/>
       <use xlink:href="#DejaVuSans-20" transform="translate(191.064453 0.09375)"/>
       <use xlink:href="#DejaVuSans-50" transform="translate(222.851562 0.09375)"/>
       <use xlink:href="#DejaVuSans-6f" transform="translate(283.154297 0.09375)"/>
       <use xlink:href="#DejaVuSans-73" transform="translate(344.335938 0.09375)"/>
       <use xlink:href="#DejaVuSans-394" transform="translate(396.435547 0.09375)"/>
      </g>
     </g>
    </g>
    <g id="xtick_16">
     <g id="line2d_16">
      <g>
       <use xlink:href="#m8314c55387" x="396.201099" y="210.172201" style="stroke: #000000; stroke-width: 0.8"/>
      </g>
     </g>
     <g id="text_16">
      <!-- Avg Neg$\Delta$ -->
      <g transform="translate(359.926521 257.320399) rotate(-45) scale(0.1 -0.1)">
       <defs>
        <path id="DejaVuSans-4e" d="M 628 4666 
L 1478 4666 
L 3547 763 
L 3547 4666 
L 4159 4666 
L 4159 0 
L 3309 0 
L 1241 3903 
L 1241 0 
L 628 0 
L 628 4666 
z
" transform="scale(0.015625)"/>
       </defs>
       <use xlink:href="#DejaVuSans-41" transform="translate(0 0.09375)"/>
       <use xlink:href="#DejaVuSans-76" transform="translate(68.408203 0.09375)"/>
       <use xlink:href="#DejaVuSans-67" transform="translate(127.587891 0.09375)"/>
       <use xlink:href="#DejaVuSans-20" transform="translate(191.064453 0.09375)"/>
       <use xlink:href="#DejaVuSans-4e" transform="translate(222.851562 0.09375)"/>
       <use xlink:href="#DejaVuSans-65" transform="translate(297.65625 0.09375)"/>
       <use xlink:href="#DejaVuSans-67" transform="translate(359.179688 0.09375)"/>
       <use xlink:href="#DejaVuSans-394" transform="translate(422.65625 0.09375)"/>
      </g>
     </g>
    </g>
    <g id="text_17">
     <!-- Tokens -->
     <g transform="translate(221.817656 274.496141) scale(0.1 -0.1)">
      <defs>
       <path id="DejaVuSans-54" d="M -19 4666 
L 3928 4666 
L 3928 4134 
L 2272 4134 
L 2272 0 
L 1638 0 
L 1638 4134 
L -19 4134 
L -19 4666 
z
" transform="scale(0.015625)"/>
       <path id="DejaVuSans-6b" d="M 581 4863 
L 1159 4863 
L 1159 1991 
L 2875 3500 
L 3609 3500 
L 1753 1863 
L 3688 0 
L 2938 0 
L 1159 1709 
L 1159 0 
L 581 0 
L 581 4863 
z
" transform="scale(0.015625)"/>
      </defs>
      <use xlink:href="#DejaVuSans-54"/>
      <use xlink:href="#DejaVuSans-6f" x="44.083984"/>
      <use xlink:href="#DejaVuSans-6b" x="105.265625"/>
      <use xlink:href="#DejaVuSans-65" x="159.550781"/>
      <use xlink:href="#DejaVuSans-6e" x="221.074219"/>
      <use xlink:href="#DejaVuSans-73" x="284.453125"/>
     </g>
    </g>
   </g>
   <g id="matplotlib.axis_2">
    <g id="ytick_1">
     <g id="line2d_17">
      <defs>
       <path id="m83c0c96055" d="M 0 0 
L -3.5 0 
" style="stroke: #000000; stroke-width: 0.8"/>
      </defs>
      <g>
       <use xlink:href="#m83c0c96055" x="56.09" y="202.586865" style="stroke: #000000; stroke-width: 0.8"/>
      </g>
     </g>
     <g id="text_18">
      <!-- −1.0 -->
      <g transform="translate(24.807188 206.386083) scale(0.1 -0.1)">
       <defs>
        <path id="DejaVuSans-2212" d="M 678 2272 
L 4684 2272 
L 4684 1741 
L 678 1741 
L 678 2272 
z
" transform="scale(0.015625)"/>
        <path id="DejaVuSans-31" d="M 794 531 
L 1825 531 
L 1825 4091 
L 703 3866 
L 703 4441 
L 1819 4666 
L 2450 4666 
L 2450 531 
L 3481 531 
L 3481 0 
L 794 0 
L 794 531 
z
" transform="scale(0.015625)"/>
        <path id="DejaVuSans-2e" d="M 684 794 
L 1344 794 
L 1344 0 
L 684 0 
L 684 794 
z
" transform="scale(0.015625)"/>
        <path id="DejaVuSans-30" d="M 2034 4250 
Q 1547 4250 1301 3770 
Q 1056 3291 1056 2328 
Q 1056 1369 1301 889 
Q 1547 409 2034 409 
Q 2525 409 2770 889 
Q 3016 1369 3016 2328 
Q 3016 3291 2770 3770 
Q 2525 4250 2034 4250 
z
M 2034 4750 
Q 2819 4750 3233 4129 
Q 3647 3509 3647 2328 
Q 3647 1150 3233 529 
Q 2819 -91 2034 -91 
Q 1250 -91 836 529 
Q 422 1150 422 2328 
Q 422 3509 836 4129 
Q 1250 4750 2034 4750 
z
" transform="scale(0.015625)"/>
       </defs>
       <use xlink:href="#DejaVuSans-2212"/>
       <use xlink:href="#DejaVuSans-31" x="83.789062"/>
       <use xlink:href="#DejaVuSans-2e" x="147.412109"/>
       <use xlink:href="#DejaVuSans-30" x="179.199219"/>
      </g>
     </g>
    </g>
    <g id="ytick_2">
     <g id="line2d_18">
      <g>
       <use xlink:href="#m83c0c96055" x="56.09" y="162.717775" style="stroke: #000000; stroke-width: 0.8"/>
      </g>
     </g>
     <g id="text_19">
      <!-- −0.5 -->
      <g transform="translate(24.807188 166.516994) scale(0.1 -0.1)">
       <defs>
        <path id="DejaVuSans-35" d="M 691 4666 
L 3169 4666 
L 3169 4134 
L 1269 4134 
L 1269 2991 
Q 1406 3038 1543 3061 
Q 1681 3084 1819 3084 
Q 2600 3084 3056 2656 
Q 3513 2228 3513 1497 
Q 3513 744 3044 326 
Q 2575 -91 1722 -91 
Q 1428 -91 1123 -41 
Q 819 9 494 109 
L 494 744 
Q 775 591 1075 516 
Q 1375 441 1709 441 
Q 2250 441 2565 725 
Q 2881 1009 2881 1497 
Q 2881 1984 2565 2268 
Q 2250 2553 1709 2553 
Q 1456 2553 1204 2497 
Q 953 2441 691 2322 
L 691 4666 
z
" transform="scale(0.015625)"/>
       </defs>
       <use xlink:href="#DejaVuSans-2212"/>
       <use xlink:href="#DejaVuSans-30" x="83.789062"/>
       <use xlink:href="#DejaVuSans-2e" x="147.412109"/>
       <use xlink:href="#DejaVuSans-35" x="179.199219"/>
      </g>
     </g>
    </g>
    <g id="ytick_3">
     <g id="line2d_19">
      <g>
       <use xlink:href="#m83c0c96055" x="56.09" y="122.848686" style="stroke: #000000; stroke-width: 0.8"/>
      </g>
     </g>
     <g id="text_20">
      <!-- 0.0 -->
      <g transform="translate(33.186875 126.647905) scale(0.1 -0.1)">
       <use xlink:href="#DejaVuSans-30"/>
       <use xlink:href="#DejaVuSans-2e" x="63.623047"/>
       <use xlink:href="#DejaVuSans-30" x="95.410156"/>
      </g>
     </g>
    </g>
    <g id="ytick_4">
     <g id="line2d_20">
      <g>
       <use xlink:href="#m83c0c96055" x="56.09" y="82.979597" style="stroke: #000000; stroke-width: 0.8"/>
      </g>
     </g>
     <g id="text_21">
      <!-- 0.5 -->
      <g transform="translate(33.186875 86.778816) scale(0.1 -0.1)">
       <use xlink:href="#DejaVuSans-30"/>
       <use xlink:href="#DejaVuSans-2e" x="63.623047"/>
       <use xlink:href="#DejaVuSans-35" x="95.410156"/>
      </g>
     </g>
    </g>
    <g id="ytick_5">
     <g id="line2d_21">
      <g>
       <use xlink:href="#m83c0c96055" x="56.09" y="43.110508" style="stroke: #000000; stroke-width: 0.8"/>
      </g>
     </g>
     <g id="text_22">
      <!-- 1.0 -->
      <g transform="translate(33.186875 46.909726) scale(0.1 -0.1)">
       <use xlink:href="#DejaVuSans-31"/>
       <use xlink:href="#DejaVuSans-2e" x="63.623047"/>
       <use xlink:href="#DejaVuSans-30" x="95.410156"/>
      </g>
     </g>
    </g>
    <g id="text_23">
     <!-- Log Prob Change -->
     <g transform="translate(18.7275 152.843913) rotate(-90) scale(0.1 -0.1)">
      <defs>
       <path id="DejaVuSans-4c" d="M 628 4666 
L 1259 4666 
L 1259 531 
L 3531 531 
L 3531 0 
L 628 0 
L 628 4666 
z
" transform="scale(0.015625)"/>
       <path id="DejaVuSans-43" d="M 4122 4306 
L 4122 3641 
Q 3803 3938 3442 4084 
Q 3081 4231 2675 4231 
Q 1875 4231 1450 3742 
Q 1025 3253 1025 2328 
Q 1025 1406 1450 917 
Q 1875 428 2675 428 
Q 3081 428 3442 575 
Q 3803 722 4122 1019 
L 4122 359 
Q 3791 134 3420 21 
Q 3050 -91 2638 -91 
Q 1578 -91 968 557 
Q 359 1206 359 2328 
Q 359 3453 968 4101 
Q 1578 4750 2638 4750 
Q 3056 4750 3426 4639 
Q 3797 4528 4122 4306 
z
" transform="scale(0.015625)"/>
      </defs>
      <use xlink:href="#DejaVuSans-4c"/>
      <use xlink:href="#DejaVuSans-6f" x="53.962891"/>
      <use xlink:href="#DejaVuSans-67" x="115.144531"/>
      <use xlink:href="#DejaVuSans-20" x="178.621094"/>
      <use xlink:href="#DejaVuSans-50" x="210.408203"/>
      <use xlink:href="#DejaVuSans-72" x="268.960938"/>
      <use xlink:href="#DejaVuSans-6f" x="307.824219"/>
      <use xlink:href="#DejaVuSans-62" x="369.005859"/>
      <use xlink:href="#DejaVuSans-20" x="432.482422"/>
      <use xlink:href="#DejaVuSans-43" x="464.269531"/>
      <use xlink:href="#DejaVuSans-68" x="534.09375"/>
      <use xlink:href="#DejaVuSans-61" x="597.472656"/>
      <use xlink:href="#DejaVuSans-6e" x="658.751953"/>
      <use xlink:href="#DejaVuSans-67" x="722.130859"/>
      <use xlink:href="#DejaVuSans-65" x="785.607422"/>
     </g>
    </g>
   </g>
   <g id="LineCollection_1">
    <path d="M 370.992123 104.700654 
L 370.992123 37.430486 
" clip-path="url(#p04adede544)" style="fill: none; stroke: #000000; stroke-width: 1.5"/>
   </g>
   <g id="LineCollection_2">
    <path d="M 379.395115 110.04193 
L 379.395115 63.72439 
" clip-path="url(#p04adede544)" style="fill: none; stroke: #000000; stroke-width: 1.5"/>
   </g>
   <g id="LineCollection_3">
    <path d="M 391.999603 200.025918 
L 391.999603 139.732188 
" clip-path="url(#p04adede544)" style="fill: none; stroke: #000000; stroke-width: 1.5"/>
   </g>
   <g id="LineCollection_4">
    <path d="M 400.402595 188.294186 
L 400.402595 150.692299 
" clip-path="url(#p04adede544)" style="fill: none; stroke: #000000; stroke-width: 1.5"/>
   </g>
   <g id="line2d_22">
    <path d="M 56.09 122.848686 
L 421.2 122.848686 
" clip-path="url(#p04adede544)" style="fill: none; stroke-dasharray: 2.96,1.28; stroke-dashoffset: 0; stroke: #000000; stroke-width: 0.8"/>
   </g>
   <g id="line2d_23">
    <defs>
     <path id="med9d39d25f" d="M 0 3 
C 0.795609 3 1.55874 2.683901 2.12132 2.12132 
C 2.683901 1.55874 3 0.795609 3 0 
C 3 -0.795609 2.683901 -1.55874 2.12132 -2.12132 
C 1.55874 -2.683901 0.795609 -3 0 -3 
C -0.795609 -3 -1.55874 -2.683901 -2.12132 -2.12132 
C -2.683901 -1.55874 -3 -0.795609 -3 0 
C -3 0.795609 -2.683901 1.55874 -2.12132 2.12132 
C -1.55874 2.683901 -0.795609 3 0 3 
z
" style="stroke: #000000"/>
    </defs>
    <g clip-path="url(#p04adede544)">
     <use xlink:href="#med9d39d25f" x="370.992123" y="71.06557" style="stroke: #000000"/>
    </g>
   </g>
   <g id="line2d_24">
    <g clip-path="url(#p04adede544)">
     <use xlink:href="#med9d39d25f" x="379.395115" y="86.88316" style="stroke: #000000"/>
    </g>
   </g>
   <g id="line2d_25">
    <g clip-path="url(#p04adede544)">
     <use xlink:href="#med9d39d25f" x="391.999603" y="169.879053" style="stroke: #000000"/>
    </g>
   </g>
   <g id="line2d_26">
    <g clip-path="url(#p04adede544)">
     <use xlink:href="#med9d39d25f" x="400.402595" y="169.493243" style="stroke: #000000"/>
    </g>
   </g>
   <g id="patch_35">
    <path d="M 56.09 210.172201 
L 56.09 10.8 
" style="fill: none; stroke: #000000; stroke-width: 0.8; stroke-linejoin: miter; stroke-linecap: square"/>
   </g>
   <g id="patch_36">
    <path d="M 421.2 210.172201 
L 421.2 10.8 
" style="fill: none; stroke: #000000; stroke-width: 0.8; stroke-linejoin: miter; stroke-linecap: square"/>
   </g>
   <g id="patch_37">
    <path d="M 56.09 210.172201 
L 421.2 210.172201 
" style="fill: none; stroke: #000000; stroke-width: 0.8; stroke-linejoin: miter; stroke-linecap: square"/>
   </g>
   <g id="patch_38">
    <path d="M 56.09 10.8 
L 421.2 10.8 
" style="fill: none; stroke: #000000; stroke-width: 0.8; stroke-linejoin: miter; stroke-linecap: square"/>
   </g>
   <g id="legend_1">
    <g id="patch_39">
     <path d="M 63.09 205.172201 
L 119.441563 205.172201 
Q 121.441563 205.172201 121.441563 203.172201 
L 121.441563 174.815951 
Q 121.441563 172.815951 119.441563 172.815951 
L 63.09 172.815951 
Q 61.09 172.815951 61.09 174.815951 
L 61.09 203.172201 
Q 61.09 205.172201 63.09 205.172201 
z
" style="fill: #ffffff; opacity: 0.8; stroke: #cccccc; stroke-linejoin: miter"/>
    </g>
    <g id="patch_40">
     <path d="M 65.09 184.414389 
L 85.09 184.414389 
L 85.09 177.414389 
L 65.09 177.414389 
z
" style="fill: #009900"/>
    </g>
    <g id="text_24">
     <!-- Base -->
     <g transform="translate(93.09 184.414389) scale(0.1 -0.1)">
      <defs>
       <path id="DejaVuSans-42" d="M 1259 2228 
L 1259 519 
L 2272 519 
Q 2781 519 3026 730 
Q 3272 941 3272 1375 
Q 3272 1813 3026 2020 
Q 2781 2228 2272 2228 
L 1259 2228 
z
M 1259 4147 
L 1259 2741 
L 2194 2741 
Q 2656 2741 2882 2914 
Q 3109 3088 3109 3444 
Q 3109 3797 2882 3972 
Q 2656 4147 2194 4147 
L 1259 4147 
z
M 628 4666 
L 2241 4666 
Q 2963 4666 3353 4366 
Q 3744 4066 3744 3513 
Q 3744 3084 3544 2831 
Q 3344 2578 2956 2516 
Q 3422 2416 3680 2098 
Q 3938 1781 3938 1306 
Q 3938 681 3513 340 
Q 3088 0 2303 0 
L 628 0 
L 628 4666 
z
" transform="scale(0.015625)"/>
      </defs>
      <use xlink:href="#DejaVuSans-42"/>
      <use xlink:href="#DejaVuSans-61" x="68.603516"/>
      <use xlink:href="#DejaVuSans-73" x="129.882812"/>
      <use xlink:href="#DejaVuSans-65" x="181.982422"/>
     </g>
    </g>
    <g id="patch_41">
     <path d="M 65.09 199.092514 
L 85.09 199.092514 
L 85.09 192.092514 
L 65.09 192.092514 
z
" style="fill: #990000"/>
    </g>
    <g id="text_25">
     <!-- Adv. -->
     <g transform="translate(93.09 199.092514) scale(0.1 -0.1)">
      <use xlink:href="#DejaVuSans-41"/>
      <use xlink:href="#DejaVuSans-64" x="66.658203"/>
      <use xlink:href="#DejaVuSans-76" x="130.134766"/>
      <use xlink:href="#DejaVuSans-2e" x="181.564453"/>
     </g>
    </g>
   </g>
  </g>
 </g>
 <defs>
  <clipPath id="p04adede544">
   <rect x="56.09" y="10.8" width="365.11" height="199.372201"/>
  </clipPath>
 </defs>
</svg>
